<?xml version="1.0" encoding="utf-8"?>
<svg width="139.3mm" height="69.165" viewBox="0 0 139.3 18.3" xmlns="http://www.w3.org/2000/svg" xmlns:xlink="http://www.w3.org/1999/xlink">
  <defs>
    <linearGradient id="a">
      <stop style="stop-color:#345785;stop-opacity:1" offset="0"/>
      <stop style="stop-color:#743aa0;stop-opacity:1" offset="1"/>
    </linearGradient>
    <linearGradient id="c" gradientUnits="userSpaceOnUse" x1="98.397" y1="124.137" x2="681.194" y2="124.137" xlink:href="#a"/>
    <linearGradient id="d" gradientUnits="userSpaceOnUse" x1="98.397" y1="124.137" x2="681.194" y2="124.137" xlink:href="#a"/>
    <linearGradient id="e" gradientUnits="userSpaceOnUse" x1="98.397" y1="124.137" x2="681.194" y2="124.137" xlink:href="#a"/>
    <linearGradient id="f" gradientUnits="userSpaceOnUse" x1="98.397" y1="124.137" x2="681.194" y2="124.137" xlink:href="#a"/>
    <linearGradient id="g" gradientUnits="userSpaceOnUse" x1="98.397" y1="124.137" x2="681.194" y2="124.137" xlink:href="#a"/>
    <linearGradient id="h" gradientUnits="userSpaceOnUse" x1="98.397" y1="124.137" x2="681.194" y2="124.137" xlink:href="#a"/>
    <linearGradient id="i" gradientUnits="userSpaceOnUse" x1="98.397" y1="124.137" x2="681.194" y2="124.137" xlink:href="#a"/>
    <linearGradient id="j" gradientUnits="userSpaceOnUse" x1="98.397" y1="124.137" x2="681.194" y2="124.137" xlink:href="#a"/>
    <linearGradient id="k" gradientUnits="userSpaceOnUse" x1="98.397" y1="124.137" x2="681.194" y2="124.137" xlink:href="#a"/>
    <linearGradient id="l" gradientUnits="userSpaceOnUse" x1="98.397" y1="124.137" x2="681.194" y2="124.137" xlink:href="#a"/>
    <linearGradient id="m" gradientUnits="userSpaceOnUse" x1="98.397" y1="124.137" x2="681.194" y2="124.137" xlink:href="#a"/>
    <linearGradient id="n" gradientUnits="userSpaceOnUse" x1="98.397" y1="124.137" x2="681.194" y2="124.137" xlink:href="#a"/>
    <linearGradient id="o" gradientUnits="userSpaceOnUse" x1="98.397" y1="124.137" x2="681.194" y2="124.137" xlink:href="#a"/>
    <linearGradient id="p" gradientUnits="userSpaceOnUse" x1="98.397" y1="124.137" x2="681.194" y2="124.137" xlink:href="#a"/>
    <linearGradient id="q" gradientUnits="userSpaceOnUse" x1="98.397" y1="124.137" x2="681.194" y2="124.137" xlink:href="#a"/>
    <linearGradient id="r" gradientUnits="userSpaceOnUse" x1="98.397" y1="124.137" x2="681.194" y2="124.137" xlink:href="#a"/>
    <linearGradient id="s" gradientUnits="userSpaceOnUse" x1="98.397" y1="124.137" x2="681.194" y2="124.137" xlink:href="#a"/>
    <linearGradient id="t" gradientUnits="userSpaceOnUse" x1="98.397" y1="124.137" x2="681.194" y2="124.137" xlink:href="#a"/>
    <linearGradient id="u" gradientUnits="userSpaceOnUse" x1="98.397" y1="124.137" x2="681.194" y2="124.137" xlink:href="#a"/>
    <linearGradient id="v" gradientUnits="userSpaceOnUse" x1="98.397" y1="124.137" x2="681.194" y2="124.137" xlink:href="#a"/>
    <linearGradient id="w" gradientUnits="userSpaceOnUse" x1="98.397" y1="124.137" x2="681.194" y2="124.137" xlink:href="#a"/>
    <linearGradient id="x" gradientUnits="userSpaceOnUse" x1="98.397" y1="124.137" x2="681.194" y2="124.137" xlink:href="#a"/>
    <linearGradient id="y" gradientUnits="userSpaceOnUse" x1="98.397" y1="124.137" x2="681.194" y2="124.137" xlink:href="#a"/>
    <linearGradient id="z" gradientUnits="userSpaceOnUse" x1="98.397" y1="124.137" x2="681.194" y2="124.137" xlink:href="#a"/>
    <linearGradient id="A" gradientUnits="userSpaceOnUse" x1="98.397" y1="124.137" x2="681.194" y2="124.137" xlink:href="#a"/>
    <linearGradient id="B" gradientUnits="userSpaceOnUse" x1="98.397" y1="124.137" x2="681.194" y2="124.137" xlink:href="#a"/>
    <path id="b" d="M71.868 51.963h646.695v157.644H71.868z"/>
  </defs>
  <g aria-label="Looking For A Cool New Website?" transform="matrix(.26458 0 0 .26458 -32.23 -20.492)" style="font-size:40px;line-height:.95;letter-spacing:-3.8px;word-spacing:3px;white-space:pre;shape-inside:url(#b);shape-padding:23.6636;fill:url(#linearGradient3887);stroke:#1f1f1f;stroke-width:1.00157">
    <path d="M127.097 106.03V79.194h7.247v20.957h19.59v5.879z" style="font-weight: 700; font-family: Syncopate; text-align: center; text-anchor: middle; fill: url(#c); stroke: rgb(15, 15, 15);"/>
    <path d="M190.66 92.631q0 3.457-1.269 6.113-1.27 2.637-3.633 4.414-2.363 1.778-5.742 2.696-3.36.898-7.558.898-4.2 0-7.598-.898-3.379-.918-5.762-2.696-2.383-1.777-3.672-4.414-1.289-2.656-1.289-6.113 0-3.457 1.29-6.094 1.288-2.656 3.671-4.433 2.383-1.778 5.762-2.676 3.398-.918 7.598-.918 4.199 0 7.558.918 3.38.898 5.742 2.676 2.364 1.777 3.633 4.433 1.27 2.637 1.27 6.094zm-7.323 0q0-1.504-.489-2.988-.469-1.504-1.699-2.695-1.21-1.192-3.32-1.934t-5.371-.742q-2.188 0-3.848.351-1.66.332-2.871.938-1.211.605-2.031 1.426-.82.8-1.309 1.738-.488.918-.703 1.933-.195.997-.195 1.973 0 .996.195 2.012.215 1.015.703 1.953.488.918 1.309 1.719.82.8 2.03 1.406 1.212.586 2.872.937 1.66.333 3.848.333 3.261 0 5.37-.743 2.11-.742 3.321-1.933 1.23-1.192 1.7-2.676.488-1.504.488-3.008z" style="font-weight: 700; font-family: Syncopate; text-align: center; text-anchor: middle; fill: url(#d); stroke: rgb(15, 15, 15);"/>
    <path d="M228.189 92.631q0 3.457-1.27 6.113-1.27 2.637-3.632 4.414-2.364 1.778-5.743 2.696-3.359.898-7.558.898-4.2 0-7.598-.898-3.379-.918-5.762-2.696-2.382-1.777-3.672-4.414-1.289-2.656-1.289-6.113 0-3.457 1.29-6.094 1.289-2.656 3.671-4.433 2.383-1.778 5.762-2.676 3.399-.918 7.598-.918t7.558.918q3.38.898 5.743 2.676 2.363 1.777 3.632 4.433 1.27 2.637 1.27 6.094zm-7.324 0q0-1.504-.489-2.988-.468-1.504-1.699-2.695-1.21-1.192-3.32-1.934t-5.371-.742q-2.188 0-3.848.351-1.66.332-2.871.938-1.21.605-2.031 1.426-.82.8-1.309 1.738-.488.918-.703 1.933-.195.997-.195 1.973 0 .996.195 2.012.215 1.015.703 1.953.488.918 1.309 1.719.82.8 2.031 1.406 1.21.586 2.871.937 1.66.333 3.848.333 3.261 0 5.37-.743 2.11-.742 3.321-1.933 1.23-1.192 1.7-2.676.488-1.504.488-3.008z" style="font-weight: 700; font-family: Syncopate; text-align: center; text-anchor: middle; fill: url(#e); stroke: rgb(15, 15, 15);"/>
    <path d="M256.479 106.03q-.196-2.188-1.055-3.829-.86-1.66-2.168-2.851-1.289-1.192-2.93-1.973-1.62-.781-3.34-1.23-1.718-.469-3.437-.645-1.7-.195-3.164-.195h-2.148v10.723h-7.247V79.194h7.247v10.351h1.484q1.504 0 3.144-.234 1.641-.235 3.243-.742 1.62-.508 3.105-1.309 1.484-.8 2.656-1.953 1.172-1.152 1.953-2.656.782-1.524.977-3.457h7.383q-.195 2.129-.86 3.847-.644 1.719-1.62 3.086-.958 1.348-2.15 2.364-1.19 1.015-2.44 1.757-1.25.723-2.5 1.211-1.231.469-2.305.723 1.367.215 2.832.684 1.484.449 2.93 1.21 1.445.743 2.753 1.836 1.329 1.094 2.383 2.559 1.055 1.465 1.758 3.34.703 1.875.899 4.219z" style="font-weight: 700; font-family: Syncopate; text-align: center; text-anchor: middle; fill: url(#f); stroke: rgb(15, 15, 15);"/>
    <path d="M266.272 106.03V79.194h7.247v26.836z" style="font-weight: 700; font-family: Syncopate; text-align: center; text-anchor: middle; fill: url(#g); stroke: rgb(15, 15, 15);"/>
    <path d="M303.683 106.03V90.99q0-1.503-.254-2.714-.253-1.23-.957-2.09-.683-.88-1.933-1.348-1.23-.488-3.184-.488-1.484 0-3.125.41-1.62.39-3.222 1.055-1.602.664-3.067 1.543-1.445.879-2.578 1.836v16.836h-7.246V79.194h7.246v3.672q1.367-.782 2.91-1.543 1.543-.782 3.281-1.407 1.739-.625 3.692-1.015 1.953-.391 4.121-.391 2.715 0 4.844.664 2.148.645 3.633 1.856 1.484 1.191 2.265 2.91.801 1.699.801 3.808v18.282z" style="font-weight: 700; font-family: Syncopate; text-align: center; text-anchor: middle; fill: url(#h); stroke: rgb(15, 15, 15);"/>
    <path d="M332.676 78.51q3.946 0 7.325.684 3.398.664 6.23 1.718v6.563q-1.113-.625-2.52-1.211-1.386-.586-3.027-1.035-1.64-.45-3.515-.723-1.875-.273-3.946-.273-2.578 0-4.492.37-1.914.372-3.281.997-1.367.625-2.246 1.465-.88.82-1.387 1.758-.508.937-.703 1.914-.195.976-.195 1.894 0 .8.156 1.738.176.938.625 1.875.469.938 1.289 1.797.82.86 2.129 1.524 1.328.664 3.183 1.074 1.856.39 4.414.39 1.29 0 2.247-.078.957-.078 1.738-.214.8-.137 1.484-.332.703-.196 1.445-.41v-3.243h-8.125v-5.879h15.372v13.711q-1.446.489-3.243.899-1.777.39-3.691.664-1.895.293-3.809.449-1.914.156-3.613.156-2.637 0-5.058-.351-2.422-.352-4.532-1.075-2.09-.742-3.828-1.875-1.719-1.132-2.95-2.695-1.21-1.562-1.894-3.574-.664-2.031-.664-4.55 0-2.5.703-4.532.704-2.031 1.954-3.594 1.27-1.562 3.027-2.695 1.777-1.133 3.887-1.856 2.129-.742 4.53-1.093 2.423-.352 4.981-.352z" style="font-weight: 700; font-family: Syncopate; text-align: center; text-anchor: middle; fill: url(#i); stroke: rgb(15, 15, 15);"/>
    <path d="M372.354 84.916v4.668h17.441v5.723h-17.441v10.723h-7.246V79.194h25.644v5.722z" style="font-weight: 700; font-family: Syncopate; text-align: center; text-anchor: middle; fill: url(#j); stroke: rgb(15, 15, 15);"/>
    <path d="M427.675 92.631q0 3.457-1.27 6.113-1.27 2.637-3.633 4.414-2.363 1.778-5.742 2.696-3.36.898-7.558.898-4.2 0-7.598-.898-3.379-.918-5.762-2.696-2.383-1.777-3.672-4.414-1.289-2.656-1.289-6.113 0-3.457 1.29-6.094 1.288-2.656 3.671-4.433 2.383-1.778 5.762-2.676 3.398-.918 7.598-.918 4.199 0 7.558.918 3.38.898 5.742 2.676 2.364 1.777 3.633 4.433 1.27 2.637 1.27 6.094zm-7.324 0q0-1.504-.489-2.988-.468-1.504-1.699-2.695-1.21-1.192-3.32-1.934t-5.371-.742q-2.188 0-3.848.351-1.66.332-2.871.938-1.211.605-2.031 1.426-.82.8-1.309 1.738-.488.918-.703 1.933-.195.997-.195 1.973 0 .996.195 2.012.215 1.015.703 1.953.488.918 1.309 1.719.82.8 2.03 1.406 1.212.586 2.872.937 1.66.333 3.848.333 3.261 0 5.37-.743 2.11-.742 3.321-1.933 1.23-1.192 1.7-2.676.488-1.504.488-3.008z" style="font-weight: 700; font-family: Syncopate; text-align: center; text-anchor: middle; fill: url(#k); stroke: rgb(15, 15, 15);"/>
    <path d="M455.164 85.268q-.293-.098-.86-.254-.546-.176-1.289-.332-.742-.176-1.64-.293-.88-.117-1.817-.117-1.953 0-3.652.488-1.68.469-3.144 1.27-1.465.78-2.735 1.796-1.25.997-2.305 2.051v16.153h-7.246V79.194h7.246v4.355q1.31-.976 2.676-1.875 1.387-.918 2.871-1.621 1.504-.703 3.164-1.113 1.66-.43 3.516-.43.703 0 1.426.078.742.059 1.426.156.703.098 1.308.215.606.117 1.055.235v6.074z" style="font-weight: 700; font-family: Syncopate; text-align: center; text-anchor: middle; fill: url(#l); stroke: rgb(15, 15, 15);"/>
    <path d="M491.755 100.951h-14.96l-2.52 5.079h-8.086l14.043-26.836h8.086l14.043 26.836h-8.086zm-12.363-5.234h9.805l-4.883-9.883z" style="font-weight: 700; font-family: Syncopate; text-align: center; text-anchor: middle; fill: url(#m); stroke: rgb(15, 15, 15);"/>
    <path d="M546.765 104.194q-1.407.586-2.832 1.054-1.426.47-2.95.801-1.523.352-3.222.527-1.68.176-3.614.176-4.101 0-7.558-.879-3.438-.879-5.938-2.636-2.48-1.778-3.867-4.414-1.387-2.657-1.387-6.192t1.387-6.172q1.387-2.656 3.867-4.414 2.5-1.777 5.938-2.656 3.457-.879 7.558-.879 1.934 0 3.614.176 1.699.176 3.222.527 1.524.332 2.95.801 1.425.469 2.832 1.055v6.523q-1.114-.605-2.344-1.191-1.23-.606-2.715-1.075-1.484-.488-3.262-.78-1.777-.313-4.004-.313-3.418 0-5.683.703-2.246.703-3.594 1.875-1.348 1.172-1.894 2.695-.547 1.504-.547 3.125 0 1.074.234 2.129.234 1.035.781 1.973.547.918 1.426 1.699.879.781 2.188 1.348 1.308.566 3.046.898 1.758.313 4.043.313 2.227 0 4.004-.274 1.778-.293 3.262-.762 1.484-.468 2.715-1.054 1.23-.606 2.344-1.23z" style="font-weight: 700; font-family: Syncopate; text-align: center; text-anchor: middle; fill: url(#n); stroke: rgb(15, 15, 15);"/>
    <path d="M584.449 92.631q0 3.457-1.27 6.113-1.269 2.637-3.632 4.414-2.364 1.778-5.743 2.696-3.359.898-7.558.898-4.2 0-7.598-.898-3.379-.918-5.761-2.696-2.383-1.777-3.672-4.414-1.29-2.656-1.29-6.113 0-3.457 1.29-6.094 1.289-2.656 3.672-4.433 2.382-1.778 5.761-2.676 3.399-.918 7.598-.918 4.2 0 7.558.918 3.38.898 5.743 2.676 2.363 1.777 3.632 4.433 1.27 2.637 1.27 6.094zm-7.324 0q0-1.504-.488-2.988-.47-1.504-1.7-2.695-1.21-1.192-3.32-1.934t-5.371-.742q-2.188 0-3.848.351-1.66.332-2.87.938-1.212.605-2.032 1.426-.82.8-1.309 1.738-.488.918-.703 1.933-.195.997-.195 1.973 0 .996.195 2.012.215 1.015.703 1.953.489.918 1.309 1.719.82.8 2.031 1.406 1.211.586 2.871.937 1.66.333 3.848.333 3.262 0 5.371-.743 2.11-.742 3.32-1.933 1.23-1.192 1.7-2.676.488-1.504.488-3.008z" style="font-weight: 700; font-family: Syncopate; text-align: center; text-anchor: middle; fill: url(#o); stroke: rgb(15, 15, 15);"/>
    <path d="M621.977 92.631q0 3.457-1.27 6.113-1.269 2.637-3.632 4.414-2.363 1.778-5.742 2.696-3.36.898-7.559.898-4.2 0-7.598-.898-3.379-.918-5.761-2.696-2.383-1.777-3.672-4.414-1.29-2.656-1.29-6.113 0-3.457 1.29-6.094 1.289-2.656 3.672-4.433 2.382-1.778 5.761-2.676 3.399-.918 7.598-.918 4.2 0 7.559.918 3.379.898 5.742 2.676 2.363 1.777 3.633 4.433 1.27 2.637 1.27 6.094zm-7.324 0q0-1.504-.488-2.988-.47-1.504-1.7-2.695-1.21-1.192-3.32-1.934t-5.371-.742q-2.187 0-3.848.351-1.66.332-2.87.938-1.212.605-2.032 1.426-.82.8-1.309 1.738-.488.918-.703 1.933-.195.997-.195 1.973 0 .996.195 2.012.215 1.015.703 1.953.489.918 1.309 1.719.82.8 2.031 1.406 1.211.586 2.871.937 1.66.333 3.848.333 3.262 0 5.371-.743 2.11-.742 3.32-1.933 1.23-1.192 1.7-2.676.488-1.504.488-3.008z" style="font-weight: 700; font-family: Syncopate; text-align: center; text-anchor: middle; fill: url(#p); stroke: rgb(15, 15, 15);"/>
    <path d="M632.025 94.545q0 1.68.312 2.754.313 1.055 1.016 1.68.703.625 1.816.86 1.133.234 2.774.234h13.75v5.957h-15.235q-3.164 0-5.39-.508-2.207-.528-3.614-1.602-1.406-1.094-2.05-2.754-.625-1.66-.625-3.945V79.194h7.246z" style="font-weight: 700; font-family: Syncopate; text-align: center; text-anchor: middle; fill: url(#q); stroke: rgb(15, 15, 15);"/>
    <path d="m233.57 145.042-18.105-18.438v18.438h-7.246v-26.836h7.871l18.125 18.515v-18.515h7.207v26.836z" style="font-weight: 700; font-family: Syncopate; text-align: center; text-anchor: middle; fill: url(#r); stroke: rgb(15, 15, 15);"/>
    <path d="M275.943 143.713q-3.301 1.094-6.602 1.563-3.281.488-6.719.488-4.394 0-7.832-.937-3.418-.957-5.761-2.754-2.344-1.797-3.575-4.395-1.23-2.597-1.23-5.879 0-3.046 1.23-5.644 1.25-2.617 3.516-4.531 2.285-1.934 5.508-3.008 3.223-1.094 7.187-1.094 3.653 0 6.68.996 3.047.977 5.215 2.91 2.187 1.934 3.379 4.766 1.21 2.832 1.21 6.523v1.797h-26.445q.352 1.27 1.153 2.324.82 1.055 2.207 1.797 1.387.743 3.398 1.153 2.032.41 4.844.41 1.992 0 3.906-.235 1.914-.253 3.575-.644 1.66-.41 2.988-.899 1.347-.488 2.168-.976zm-5-14.511q-.098-.996-.606-2.051-.488-1.074-1.562-1.934-1.074-.859-2.813-1.406-1.738-.566-4.336-.566-2.441 0-4.218.605-1.778.606-2.989 1.504-1.191.899-1.855 1.934-.664 1.035-.86 1.914z" style="font-weight: 700; font-family: Syncopate; text-align: center; text-anchor: middle; fill: url(#s); stroke: rgb(15, 15, 15);"/>
    <path d="m306.81 118.206 6.856 18.632 7.422-18.632h7.52l-10.782 26.836h-8.047l-7.011-18.047-6.992 18.047h-8.047l-10.801-26.836h7.539l7.266 18.242 7.011-18.242z" style="font-weight: 700; font-family: Syncopate; text-align: center; text-anchor: middle; fill: url(#t); stroke: rgb(15, 15, 15);"/>
    <path d="m369.73 118.206 6.856 18.632 7.422-18.632h7.52l-10.782 26.836h-8.047l-7.012-18.047-6.992 18.047h-8.047l-10.8-26.836h7.539l7.265 18.242 7.012-18.242z" style="font-weight: 700; font-family: Syncopate; text-align: center; text-anchor: middle; fill: url(#u); stroke: rgb(15, 15, 15);"/>
    <path d="M422.063 143.713q-3.3 1.094-6.601 1.563-3.282.488-6.72.488-4.394 0-7.831-.937-3.418-.957-5.762-2.754-2.344-1.797-3.574-4.395-1.23-2.597-1.23-5.879 0-3.046 1.23-5.644 1.25-2.617 3.515-4.531 2.286-1.934 5.508-3.008 3.223-1.094 7.188-1.094 3.652 0 6.68.996 3.046.977 5.214 2.91 2.188 1.934 3.38 4.766 1.21 2.832 1.21 6.523v1.797h-26.445q.351 1.27 1.152 2.324.82 1.055 2.207 1.797 1.387.743 3.399 1.153 2.03.41 4.843.41 1.993 0 3.907-.235 1.914-.253 3.574-.644 1.66-.41 2.988-.899 1.348-.488 2.168-.976zm-5-14.511q-.098-.996-.605-2.051-.489-1.074-1.563-1.934-1.074-.859-2.812-1.406-1.739-.566-4.336-.566-2.442 0-4.22.605-1.776.606-2.987 1.504-1.192.899-1.856 1.934-.664 1.035-.86 1.914z" style="font-weight: 700; font-family: Syncopate; text-align: center; text-anchor: middle; fill: url(#v); stroke: rgb(15, 15, 15);"/>
    <path d="M457.658 137.64q0 1.562-.41 2.714t-1.153 1.992q-.723.82-1.758 1.348-1.015.508-2.265.82-1.23.293-2.637.41-1.406.118-2.91.118h-19.473v-26.836h19.121q1.153 0 2.305.097 1.172.098 2.226.371 1.055.254 1.954.723.918.469 1.582 1.23.683.762 1.054 1.836.391 1.075.391 2.54 0 2.617-1.29 4.16-1.288 1.523-4.062 2.03 1.954.138 3.34.606 1.406.45 2.285 1.25.88.782 1.29 1.934.41 1.133.41 2.656zm-9.043-11.485q0-.508-.157-.957-.156-.469-.566-.82-.41-.352-1.113-.567-.703-.215-1.797-.215h-10.684v5.04h10.684q1.094 0 1.797-.196.703-.195 1.113-.527.41-.332.566-.782.157-.468.157-.976zm1.68 10.644q0-.918-.313-1.464-.313-.567-.977-.86-.664-.312-1.718-.41-1.055-.098-2.52-.098h-10.469v5.684h10.469q1.465 0 2.52-.098 1.054-.097 1.718-.41.664-.312.977-.86.312-.566.312-1.484z" style="font-weight: 700; font-family: Syncopate; text-align: center; text-anchor: middle; fill: url(#w); stroke: rgb(15, 15, 15);"/>
    <path d="M485.186 125.764q-.762-.37-2.012-.84-1.25-.468-2.832-.879-1.582-.43-3.438-.703-1.855-.293-3.808-.293-1.563 0-2.676.098-1.094.098-1.855.254-.743.156-1.192.371-.43.195-.664.41-.234.215-.312.43-.059.215-.059.39 0 .586.586 1.036.586.43 1.602.781 1.015.332 2.363.644 1.348.293 2.851.625 1.524.313 3.125.704 1.622.37 3.125.879 1.524.507 2.872 1.19 1.347.665 2.363 1.563 1.015.899 1.601 2.07.586 1.173.586 2.677 0 1.933-.683 3.32-.684 1.387-1.836 2.344-1.133.957-2.637 1.543-1.504.566-3.164.878-1.64.313-3.34.41-1.68.098-3.203.098-3.984 0-7.383-.664-3.379-.644-5.976-1.62v-6.407q2.675 1.484 6.093 2.324 3.438.84 7.344.84 2.305 0 3.75-.234 1.465-.254 2.285-.625.82-.391 1.114-.84.293-.45.293-.86 0-.644-.586-1.113-.586-.488-1.602-.84-1.016-.37-2.363-.664-1.348-.312-2.871-.605-1.504-.313-3.106-.664-1.601-.352-3.125-.82-1.504-.489-2.851-1.114-1.348-.644-2.364-1.504-1.015-.879-1.601-2.012-.586-1.152-.586-2.656 0-1.777.625-3.066.625-1.29 1.68-2.188 1.074-.918 2.46-1.484 1.407-.567 2.95-.879 1.543-.313 3.125-.43 1.582-.117 3.008-.117 1.562 0 3.203.156 1.66.157 3.261.45 1.602.273 3.086.644 1.504.371 2.774.781z" style="font-weight: 700; font-family: Syncopate; text-align: center; text-anchor: middle; fill: url(#x); stroke: rgb(15, 15, 15);"/>
    <path d="M490.468 145.042v-26.836h7.246v26.836z" style="font-weight: 700; font-family: Syncopate; text-align: center; text-anchor: middle; fill: url(#y); stroke: rgb(15, 15, 15);"/>
    <path d="M517.351 124.045v20.997h-7.246v-20.997H498.72v-5.84h30.039v5.84z" style="font-weight: 700; font-family: Syncopate; text-align: center; text-anchor: middle; fill: url(#z); stroke: rgb(15, 15, 15);"/>
    <path d="M559.665 143.713q-3.301 1.094-6.602 1.563-3.281.488-6.719.488-4.394 0-7.832-.937-3.418-.957-5.761-2.754-2.344-1.797-3.575-4.395-1.23-2.597-1.23-5.879 0-3.046 1.23-5.644 1.25-2.617 3.516-4.531 2.285-1.934 5.508-3.008 3.222-1.094 7.187-1.094 3.653 0 6.68.996 3.047.977 5.215 2.91 2.187 1.934 3.379 4.766 1.21 2.832 1.21 6.523v1.797h-26.445q.352 1.27 1.153 2.324.82 1.055 2.207 1.797 1.386.743 3.398 1.153 2.031.41 4.844.41 1.992 0 3.906-.235 1.914-.253 3.574-.644 1.66-.41 2.989-.899 1.347-.488 2.168-.976zm-5-14.511q-.098-.996-.606-2.051-.488-1.074-1.562-1.934-1.075-.859-2.813-1.406-1.738-.566-4.336-.566-2.441 0-4.219.605-1.777.606-2.988 1.504-1.191.899-1.855 1.934-.664 1.035-.86 1.914z" style="font-weight: 700; font-family: Syncopate; text-align: center; text-anchor: middle; fill: url(#A); stroke: rgb(15, 15, 15);"/>
    <path d="M584.01 125.569q0 1.582-.528 2.793-.508 1.191-1.367 2.11-.84.898-1.934 1.523-1.094.625-2.266 1.074-1.171.43-2.343.703-1.153.254-2.11.43v2.031h-7.011v-6.074q1.308-.04 2.578-.156 1.27-.137 2.402-.352 1.133-.215 2.09-.527.976-.332 1.68-.762.703-.43 1.093-.957.391-.547.391-1.211 0-.547-.234-1.035-.235-.508-.84-.88-.606-.39-1.64-.605-1.036-.234-2.638-.234-1.152 0-2.402.195-1.25.176-2.441.489-1.172.293-2.227.683-1.055.39-1.816.801v-6.64q.703-.235 1.777-.45 1.074-.234 2.324-.41 1.25-.176 2.559-.273 1.328-.118 2.539-.118 2.637 0 4.883.45 2.265.43 3.925 1.386 1.66.957 2.598 2.442.957 1.484.957 3.574zm-17.56 19.473v-6.23h7.012v6.23z" style="font-weight: 700; font-family: Syncopate; text-align: center; text-anchor: middle; fill: url(#B); stroke: rgb(15, 15, 15);"/>
  </g>
</svg>