<svg width="31" height="31" viewBox="0 0 31 31" fill="none" xmlns="http://www.w3.org/2000/svg">
<path d="M6.88889 3.44444C6.88889 5.27344 5.66611 6.84756 3.44272 6.84756C1.35022 6.84756 0 5.363 0 3.534C0 1.65678 1.30889 0 3.44444 0C5.58 0 6.84756 1.56722 6.88889 3.44444ZM0 31V8.61111H6.88889V31H0ZM10.3333 16.2647C10.3333 13.6038 10.2455 11.3804 10.1577 9.46017H16.3473L16.6539 12.4276H16.7848C17.6562 11.0308 19.7918 8.98311 23.3671 8.98311C27.7278 8.98311 31 11.9023 31 18.1832V31H24.1111V19.1838C24.1111 16.4386 23.0657 14.3444 20.6667 14.3444C18.8377 14.3444 17.9214 15.8255 17.4409 17.0466C17.2653 17.484 17.2222 18.0937 17.2222 18.7051V31H10.3333V16.2647Z" fill="url(#paint0_linear_376_128)"/>
<defs>
<linearGradient id="paint0_linear_376_128" x1="0" y1="15.5" x2="31" y2="15.5" gradientUnits="userSpaceOnUse">
<stop stop-color="#1D176C"/>
<stop offset="1" stop-color="#7118B6"/>
</linearGradient>
</defs>
</svg>
